<?xml version="1.0" encoding="UTF-8"?>
<svg id="Capa_2" data-name="Capa 2" xmlns="http://www.w3.org/2000/svg" viewBox="0 0 33.49 30.92">
  <defs>
    <style>
      .cls-1 {
        fill: #d3ad7f;
        fill-rule: evenodd;
      }
    </style>
  </defs>
  <g id="Capa_1-2" data-name="Capa 1">
    <path class="cls-1" d="m31.8,21.99c-.83-.41-4.88-2.39-5.63-2.66-.76-.28-1.31-.41-1.86.41-.55.82-2.14,2.66-2.61,3.19-.49.55-.96.61-1.79.2-.82-.41-3.48-1.26-6.62-4.06-2.44-2.16-4.11-4.83-4.58-5.65-.47-.82-.05-1.26.36-1.67.38-.38.82-.96,1.24-1.43.11-.14.2-.27.3-.39.19-.3.33-.58.52-.98.28-.55.14-1.02-.06-1.43-.56-1.11-.98-2.31-1.46-3.45-.24-.57-.48-1.15-.72-1.72-.25-.61-.42-1.3-.86-1.8C7.44-.12,6.21-.02,5.41.04c-.95.07-1.91.35-2.58,1.06C1.62,2.38.68,3.79.26,5.54.08,6.3,0,7.09,0,7.88c0,.94.17,1.89.42,2.79.83,2.88,2.63,5.25,2.94,5.66.41.53,5.7,9.06,14.07,12.35,1.81.7,3.63,1.39,5.51,1.89,1.62.43,3.11.49,4.74.05,1.93-.52,4.49-1.77,5.2-3.8.69-1.9.69-3.54.49-3.89-.2-.33-.76-.54-1.57-.94Z"/>
  </g>
</svg>