<?xml version="1.0" encoding="UTF-8"?>
<svg id="Capa_2" data-name="Capa 2" xmlns="http://www.w3.org/2000/svg" viewBox="0 0 25.01 37.49">
  <defs>
    <style>
      .cls-1 {
        fill: #d3ad7f;
      }
    </style>
  </defs>
  <g id="Capa_1-2" data-name="Capa 1">
    <g>
      <path class="cls-1" d="m8.72,15.44c0-1.42,0-2.85,0-4.27,0-.84-.02-1.68.02-2.52.04-.79.39-1.44,1.03-1.92.44-.33.95-.5,1.49-.48.74.02,1.38.34,1.86.91.42.5.63,1.08.63,1.74,0,1.65,0,3.3,0,4.95,0,.02,0,.05,0,.07,0,.12.03.15.14.09.2-.1.4-.18.62-.22.99-.17,1.79.16,2.43.92.04.05.09.11.12.16.05.08.09.08.17.02,1.11-.85,2.52-.63,3.38.35.18.21.34.43.41.7.03.1.07.09.14.04.35-.21.72-.32,1.12-.36.54-.05,1.04.08,1.49.36.7.44,1.09,1.08,1.19,1.9.02.18.03.36.03.54,0,3.21,0,6.41,0,9.62,0,.74-.02,1.47-.11,2.2-.13,1-.47,1.94-1.01,2.8-.22.35-.43.7-.66,1.04-.07.1-.06.16.02.25.38.46.58.98.48,1.58-.14.78-.79,1.41-1.58,1.53-.13.02-.25.03-.38.03-3.25,0-6.51,0-9.76,0-.49,0-.94-.11-1.32-.44-.42-.37-.66-.81-.67-1.39-.02-.73.3-1.25.89-1.64.05-.04.09-.06.06-.14-.22-.72-.54-1.38-1.02-1.96-.31-.37-.68-.67-1.07-.95-.61-.45-1.13-.99-1.65-1.53-.72-.73-1.34-1.54-1.99-2.34-.69-.85-1.61-1.33-2.72-1.45-1.09-.12-1.93-.61-2.36-1.68-.5-1.26.21-2.77,1.48-3.21.36-.13.73-.18,1.12-.19.81-.03,1.61.04,2.39.24.8.21,1.56.51,2.28.9.36.2.72.41,1.07.63.06.03.12.11.18.07.05-.03.02-.12.02-.18,0-2.26,0-4.53,0-6.79h0Zm1.3.21c0,1.02,0,2.04,0,3.07,0,1.05,0,2.1,0,3.15,0,.78-.11,1.64-1.01,1.84-.79.18-1.53-.55-2.18-.89-.85-.45-1.74-.78-2.7-.9-.78-.09-2.03-.29-2.59.41-.48.61-.3,1.56.41,1.9.39.19.88.16,1.3.26.36.09.7.2,1.04.35.71.32,1.35.79,1.86,1.39.6.69,1.13,1.44,1.75,2.1.62.65,1.26,1.27,1.98,1.82.7.53,1.29,1.2,1.72,1.97.21.38.38.79.51,1.2.05.16.05.31.21.38.12.06.44,0,.58,0,2.11,0,4.22,0,6.33,0,.54,0,1.08,0,1.62,0,.36,0,.99.15,1.24-.13.31-.36.58-.91.81-1.32.23-.39.42-.81.54-1.25.28-.95.28-1.96.28-2.94,0-1.05,0-2.1,0-3.15,0-2.09,0-4.19,0-6.28,0-.8-.12-1.63-1.08-1.75-.88-.11-1.39.59-1.39,1.4,0,.51.02,1.03,0,1.54-.02.4-.2.82-.68.8-.46-.02-.59-.43-.59-.82,0-.49,0-.98,0-1.47,0-.79.24-1.9-.48-2.46-.58-.44-1.43-.28-1.82.34-.22.34-.17.69-.17,1.08,0,.44,0,.88,0,1.32,0,.39.11.94-.23,1.23-.32.26-.82.15-.99-.23-.17-.39-.06-1.01-.06-1.43,0-.47,0-.95,0-1.42,0-.77-.09-1.57-.99-1.75-.72-.14-1.42.38-1.48,1.11-.04.5.01,1.02.01,1.52,0,.4.11,1-.08,1.36-.18.35-.64.46-.95.22-.35-.27-.26-.79-.26-1.18,0-1.02,0-2.04,0-3.06,0-1.08,0-2.15,0-3.23,0-.99.09-2.03,0-3.02-.06-.7-.62-1.29-1.35-1.24-.4.02-.76.27-.96.61-.21.36-.16.86-.16,1.26,0,2.09,0,4.18,0,6.27Zm6.85,20.56c1.66,0,3.33,0,4.99,0,.34,0,.59-.22.62-.53.03-.36-.16-.6-.52-.66-.07-.01-.15-.02-.22-.02-3.24,0-6.47,0-9.71,0-.09,0-.19,0-.28.02-.42.06-.63.48-.44.86.12.23.3.33.57.33,1.66,0,3.32,0,4.98,0Z"/>
      <path class="cls-1" d="m17.84,8.1c.51,0,1.08-.08,1.58,0,.31.05.59.3.6.63,0,.39-.36.61-.71.64-.52.05-1.06,0-1.59,0-.49,0-1.04.06-1.52,0-.32-.05-.56-.28-.57-.61-.04-.98,1.63-.66,2.21-.66h0Z"/>
      <path class="cls-1" d="m4.67,8.1c.56,0,2.43-.29,2.2.77-.08.35-.4.49-.73.51-.48.03-.97,0-1.46,0-.49,0-.99.03-1.47,0-.37-.02-.7-.21-.71-.62-.01-.37.28-.62.62-.65.51-.05,1.04,0,1.55,0h0Z"/>
      <path class="cls-1" d="m10.61,2.16c0-.5-.04-1.02,0-1.52.03-.34.25-.63.61-.64.95-.03.66,1.58.66,2.14,0,.49.02.99,0,1.48-.02.36-.15.71-.56.76-1.02.14-.71-1.66-.71-2.21Z"/>
      <path class="cls-1" d="m16.99,2.39c.3-.03.57.24.62.52.06.34-.22.59-.44.81-.35.35-.69.69-1.04,1.04-.31.31-.61.71-.98.95-.26.18-.6.19-.83-.05-.33-.34-.13-.72.14-1,.67-.7,1.37-1.37,2.06-2.06.13-.13.28-.21.46-.2Z"/>
      <path class="cls-1" d="m5.52,2.38c.39,0,.67.41.92.67.33.33.66.67,1,1,.36.36,1.48,1.27.56,1.72-.37.18-.65-.06-.91-.31-.32-.32-.65-.64-.97-.96-.44-.44-1.74-1.31-1-1.98.12-.1.25-.14.4-.14Z"/>
    </g>
  </g>
</svg>