<?xml version="1.0" encoding="UTF-8"?>
<svg id="Capa_2" data-name="Capa 2" xmlns="http://www.w3.org/2000/svg" viewBox="0 0 80 69.46">
  <defs>
    <style>
      .cls-1 {
        fill: #fff;
      }
    </style>
  </defs>
  <g id="Capa_1-2" data-name="Capa 1">
    <path class="cls-1" d="m79.75,56.78c-.57-2.7-2.05-4.85-4.35-6.45-1.79-1.24-3.82-1.82-6.02-1.84-.19,0-.36,0-.45-.24-1.24-2.94-2.51-5.88-3.75-8.79-.24-.57-.48-1.12-.74-1.7-.02-.05-.05-.12-.02-.17.07-.07.12-.02.19,0,.55.24,1.15.31,1.74.41,1.17.19,1.84-.38,1.84-1.58v-7.76c0-.76.02-1.5,0-2.27,0-1-.69-1.6-1.7-1.48-.1.02-.22.02-.33.05-2.51.36-4.28,1.67-5.28,3.99-.19.38-.17.38-.45.07-1.17-1.27-2.63-1.84-4.35-1.67-.79.07-1.58.19-2.39.17-1.1,0-2.03-.36-2.82-1.15-.96-.93-1.67-2.03-2.46-3.11-.12-.17-.02-.24.12-.26.24-.05.5-.07.72-.14,1.65-.55,2.65-1.67,3.06-3.34.02-.17.05-.33.24-.43.33-.17.57-.45.81-.74.86-.98,1.07-2.29.12-3.42-.17-.19-.29-.41-.38-.64-.31-.67-.45-1.39-.53-2.13-.02-.19.02-.29.21-.36.74-.24,1-.76,1-1.5-.05-1.6-.43-3.13-1.19-4.56C50.68,2.17,47.67.26,43.66.02c-1.84-.12-3.58.36-5.23,1.19-3.77,1.98-6.23,6.4-5.54,10.77.38,2.51,1.5,4.61,3.39,6.33.1.1.31.17.26.31-.02.14-.24.17-.38.21-1.93.55-3.49,1.7-4.8,3.15-1.7,1.86-2.77,4.06-3.61,6.4-.07.24-.12.36-.36.14-.86-.74-1.86-1.03-2.99-1.03h-13.11c-.38,0-.76,0-1.15.07-1.19.19-2.15.79-2.84,1.77-.43.62-.31,1.48.22,1.86.6.43,1.48.31,1.89-.31.36-.53.91-.72,1.53-.72s1.19,0,1.77-.02c.31,0,.41.1.41.41-.02,1.1-.02,2.2,0,3.3,0,1.03.53,1.55,1.55,1.55h6.07c1.07,0,1.6-.5,1.6-1.58v-3.34c0-.24.07-.33.31-.31h1.86c1.12,0,1.7.57,1.7,1.7v9.63c0,1.15-.57,1.72-1.7,1.72h-13.71c-.72,0-1.22-.31-1.48-.91-.1-.26-.07-.36.21-.36.74.02,1.46.02,2.17,0,1.17-.02,1.79-1.07,1.19-2.05-.26-.45-.74-.57-1.24-.6-.69-.02-1.41,0-2.13,0-.17,0-.31-.02-.31-.26v-2.05c0-.22.1-.26.29-.26.31,0,.62.02.96,0,1.12-.07,1.7-1.1,1.15-2.05-.31-.5-.79-.6-1.31-.62h-4.08c-.74,0-1.46,0-2.17.02-1.15.02-1.74,1.07-1.17,2.03.26.45.72.6,1.19.62.74.02,1.46,0,2.2,0,.19,0,.29.05.29.29v2.03c0,.19-.07.26-.26.26-.12-.02-.24,0-.36,0-1.48,0-2.99-.02-4.47,0-1.19.02-1.82,1.1-1.22,2.05.31.48.76.6,1.29.6,1.55.02,3.11.02,4.66,0,.26,0,.38.1.43.36.05.43.17.86.38,1.24.81,1.53,2.13,2.32,3.85,2.34,1.98.02,3.94,0,5.9,0,.12,0,.31-.07.36.07.07.1-.1.19-.19.26-.38.45-.74.91-1.03,1.43-.98,1.84-1.7,3.8-2.17,5.85-.38,1.72-.62,3.44-.6,5.21,0,1.05.53,1.58,1.55,1.58,1.03.02,2.05.02,3.06.02q.72,0,.86.72c.5,2.34,1.67,4.32,3.51,5.88,2.17,1.79,4.66,2.63,7.5,2.44,1.05-.05,2.08-.29,3.06-.67,1.53-.6,2.89-1.53,3.99-2.77,1.34-1.5,2.22-3.22,2.53-5.23.05-.26.17-.38.45-.38,6.35.02,12.73.02,19.11,0,.29,0,.41.12.43.38.21,1.55.79,2.99,1.72,4.25,2.48,3.37,5.8,4.92,10.03,4.42,2.41-.29,4.47-1.36,6.12-3.11,2.53-2.68,3.46-5.85,2.72-9.48Zm-59.65-24.37c0,.26-.21.45-.48.45h-3.65c-.26,0-.48-.19-.48-.45v-1.89c0-.26.22-.45.48-.45h.31c.14-.02.29-.02.43,0h2.91c.26,0,.48.19.48.45v1.89Zm45.1-4.51c.26-.12.33-.1.33.21v6.74c0,.22-.05.33-.31.22-1.43-.67-2.36-2.17-2.27-3.75.1-1.58.86-2.68,2.25-3.42Zm-6.64,2.96c.24.31.98,1.55.81,1.93-.19.41-1.74.74-2.15.86-.84.24-1.72.33-2.6.38-.88.07-1.1.1-1.1-.79-.29-2.53,3.3-4.51,5.04-2.39Zm-7.38-14.14c-.21.38-.84.5-1.12.88-.55.79-.17,1.94-1.12,2.53-1,.6-2.53.05-3.54-.26-.55-.17-.74-.1-.79-.67-.1-.74,0-1.58,0-2.32,0-1.91-.31-4.44,2.1-4.97.62-.14,2.7-.38,3.08.12.22.29.19,1.36.29,1.72.14.57.36,1.15.62,1.7.19.38.69.88.48,1.27Zm-7.17-14.05c1.86.17,3.63,1.07,4.94,2.39.62.65,1.12,1.39,1.48,2.2.14.33.91,1.91.22,1.91h-1.84c-1.6.05-3.13.02-4.51.96-1.27.88-2.13,2.32-2.32,3.82-.1.88-.05,1.79-.05,2.7,0,.29.17,1.12,0,1.39-.17.26-.5.12-.76.05-1.62-.43-3.03-1.41-4.08-2.72-4.25-5.28.29-13.21,6.93-12.68Zm-14.95,31.32c.43-2.58,1.19-5.16,2.39-7.48,1.05-2.03,2.6-3.94,4.73-4.87,2.25-.98,5.33-.88,7.41.43,2.08,1.29,3.13,3.61,4.71,5.4.79.86,1.67,1.62,2.75,2.1.6.26.81.22.5.84-.24.55-.45,1.07-.57,1.67-.07.33.05,1.48-.14,1.7-.24.24-1.19-.24-1.46-.33-1.22-.45-2.34-1.07-3.37-1.89-.88-.69-1.65-1.53-2.29-2.44-.57-.81-1.15-2.29-2.41-1.65-1.5.74-.26,2.39.38,3.25.31.43.72.72.55,1.24-.19.57-.88,1.17-1.19,1.72-.36.62-.65,1.24-.86,1.91-.26.74-.14,1.1-.98,1.1h-9.2c-.55,0-.98.17-1.12-.41-.17-.64.1-1.65.19-2.29Zm6.21,29.53c-1.62,2.2-3.77,3.32-6.55,3.27-3.11-.07-5.35-1.5-6.83-4.18-.33-.6-.57-1.24-.72-1.91-.05-.31.05-.38.31-.38.33.02.67.02,1,.02.31,0,.65,0,.98-.02.21,0,.31.07.41.29.43,1.17,1.15,2.13,2.22,2.79,2.53,1.58,5.85.69,7.33-1.91l.43-.93c.05-.17.17-.24.33-.24.69.02,1.39.02,2.05,0,.24,0,.29.1.26.31-.19,1.05-.62,2.03-1.24,2.89Zm-7.93-3.18h2.34c.26,0,1.62-.19,1.15.33-.53.6-1.19.91-1.96.86-.62.02-1.19-.17-1.65-.53-.55-.45-.65-.67.12-.67Zm12.92-2.68h-24.08q-.43,0-.38-.45c.12-1.27.29-2.51.62-3.73.43-1.65,1-3.27,1.91-4.75,1.15-1.86,2.89-2.79,5.06-2.82,4.08-.02,8.17,0,12.25,0,2.03,0,3.63,1.62,3.65,3.65v4.01c.02,1.36.33,2.65,1.12,3.77.05.07.17.17.12.26-.05.1-.19.05-.29.05Zm1.72-5.64c0-.84.02-1.67,0-2.53-.07-1.74-.72-3.27-1.98-4.49-1.24-1.17-2.72-1.74-4.42-1.77h-6.57q-.43,0-.31-.41c.12-.48.19-.98.17-1.48,0-.55.02-1.1,0-1.65,0-.26.1-.36.36-.33h5.76c1.86,0,3.7-.02,5.54,0,1.46.02,2.82.36,4.04,1.15,1.41.93,2.25,2.25,2.48,3.92.1.72.14,1.43.12,2.15,0,1.82,0,3.65.02,5.47,0,.29-.1.38-.38.38-1.48-.02-2.96-.02-4.44,0-.31,0-.41-.12-.38-.41Zm8.79,5.59c-1.7.1-3.39.07-5.09.02-1.55-.05-2.65-.88-3.37-2.27-.14-.29.02-.29.22-.29h6.09c1.31,0,2.27.81,2.48,2.1.02.29-.05.41-.33.43Zm3.15-1.12c-.19.19-.29.17-.33-.1-.43-1.86-1.6-3.06-3.37-3.68-.31-.12-.38-.24-.38-.55.02-1.17,0-2.36,0-3.54,0-1,.02-2.01,0-3.01-.05-3.3-1.43-5.85-4.25-7.62-.84-.5-1.74-.81-2.7-1.05-.26-.07-.36-.17-.26-.43.36-1,.86-1.96,1.55-2.79.12-.12.19-.12.31,0,1.24.96,2.6,1.7,4.06,2.22.76.26,1.55.53,2.39.6.21.02.38.05.45.33.53,2.01.93,4.04,1.41,6.07.45,1.91.88,3.82,1.31,5.73.33,1.39.72,2.77.93,4.18.22,1.36-.1,2.63-1.12,3.63Zm4.78,1.17c-.33,0-2.15.17-2.2-.14-.05-.19.48-.79.55-.96.19-.41.36-.84.45-1.27.55-1.93.1-3.65-.36-5.57-.96-3.87-1.91-7.76-2.72-11.68-.05-.14-.36-1.05-.29-1.19.12-.22.62-.12.88-.12.96-.07,1.91-.24,2.84-.48.43-.12.86-.26,1.29-.43.29-.12.81-.53,1.12-.48.6.07,1,1.82,1.22,2.29.84,1.93,1.65,3.87,2.48,5.8.41.93.79,1.86,1.19,2.79.41.91,1,1.89,1.27,2.87.24.91-.53,1.6-1.03,2.29-.65.91-1.31,1.84-1.96,2.77-.69.96-1.36,1.96-2.08,2.91-.65.86-1.67.57-2.68.57Zm13.11,8.84c-2.17.67-4.8.29-6.71-.96-.88-.6-1.62-1.39-2.17-2.27-.29-.43-1.53-2.41-1.1-2.87.26-.26,1.41-.07,1.77-.07.79-.02.79.1,1.1.76.48,1.03,1.24,1.91,2.25,2.46,2.15,1.19,4.8.72,6.45-1.07,1.7-1.89,1.79-4.85.19-6.83-1.72-2.13-4.92-2.53-7.12-.91-.05.02-.1.1-.17.05-.1-.31.74-1.15.91-1.41.43-.6.81-1.36,1.31-1.86.76-.76,2.53-.26,3.44.02,2.03.65,3.82,2.2,4.66,4.13,1.86,4.28-.24,9.46-4.8,10.82Zm-2.58-8.84c-.31-.02-1.55.17-1.74,0-.33-.29.41-.76.65-.91.84-.5,1.89-.45,2.72,0,1.6.91,1.62,3.34.14,4.35-.72.53-1.67.62-2.51.29-.21-.07-1.1-.53-1.1-.84.02-.38.81-.22,1.12-.22v-.02c.93,0,2.15,0,2.27-1.19.1-.96-.72-1.41-1.55-1.46Z"/>
  </g>
</svg>