<?xml version="1.0" encoding="UTF-8"?>
<svg id="Capa_2" data-name="Capa 2" xmlns="http://www.w3.org/2000/svg" viewBox="0 0 173.95 29">
  <defs>
    <style>
      .cls-1 {
        fill: #5a362a;
      }

      .cls-2 {
        fill: #a8795a;
      }
    </style>
  </defs>
  <g id="Capa_1-2" data-name="Capa 1">
    <g>
      <polygon class="cls-2" points="15.31 23.53 6.53 28.13 8.21 18.39 1.11 11.45 10.94 10.05 15.31 1.17 19.72 10.05 29.55 11.45 22.41 18.39 24.09 28.13 15.31 23.53"/>
      <path class="cls-1" d="m15.31,2.27l3.84,7.74.24.48.51.09,8.57,1.26-6.2,6.04-.39.36.09.51,1.47,8.52-7.67-4.01-.45-.24-.45.24-7.67,4.01,1.47-8.52.09-.51-.39-.36-6.2-6.07,8.57-1.26.51-.09.24-.48,3.84-7.74m0-2.24l-4.73,9.54L0,11.06l7.64,7.44-1.8,10.49,9.44-4.96,9.44,4.96-1.8-10.49,7.64-7.44-10.58-1.52L15.25,0h.06Z"/>
      <polygon class="cls-2" points="51.15 23.53 42.37 28.13 44.05 18.39 36.95 11.45 46.78 10.05 51.15 1.17 55.56 10.05 65.38 11.45 58.28 18.39 59.96 28.13 51.15 23.53"/>
      <path class="cls-1" d="m51.15,2.27l3.84,7.74.24.48.51.09,8.57,1.26-6.2,6.04-.39.36.09.51,1.47,8.52-7.67-4.01-.45-.24-.45.24-7.67,4.01,1.47-8.52.09-.51-.39-.36-6.2-6.04,8.57-1.26.51-.09.24-.48,3.84-7.74M51.15,0l-4.73,9.54-10.58,1.52,7.64,7.44-1.8,10.49,9.44-4.96,9.44,4.96-1.8-10.49,7.64-7.44-10.58-1.52L51.09,0h.06Z"/>
      <polygon class="cls-2" points="79.92 18.39 72.79 11.45 82.62 10.05 87.02 1.17 91.39 10.05 101.22 11.45 94.12 18.39 95.8 28.13 87.02 23.53 78.24 28.13 79.92 18.39"/>
      <path class="cls-1" d="m87.02,2.27l3.84,7.74.24.48.51.09,8.57,1.26-6.2,6.04-.39.36.09.51,1.47,8.52-7.67-4.01-.45-.24-.45.24-7.67,4.01,1.47-8.52.09-.51-.39-.36-6.2-6.04,8.57-1.26.51-.09.24-.48,3.84-7.74M87.02,0l-4.73,9.54-10.58,1.52,7.64,7.44-1.8,10.49,9.44-4.96,9.44,4.96-1.8-10.49,7.64-7.44-10.58-1.52-4.73-9.54h.06Z"/>
      <polygon class="cls-2" points="122.86 23.53 114.08 28.13 115.76 18.39 108.66 11.45 118.45 10.05 122.86 1.17 127.26 10.05 137.09 11.45 129.96 18.39 131.64 28.13 122.86 23.53"/>
      <path class="cls-1" d="m122.86,2.27l3.84,7.74.24.48.51.09,8.57,1.26-6.2,6.04-.39.36.09.51,1.47,8.52-7.67-4.01-.45-.24-.45.24-7.67,4.01,1.47-8.52.09-.51-.39-.36-6.2-6.04,8.57-1.26.51-.09.24-.48,3.84-7.74M122.86,0l-4.73,9.54-10.58,1.52,7.64,7.44-1.8,10.49,9.44-4.96,9.44,4.96-1.8-10.49,7.64-7.44-10.58-1.52-4.73-9.54h.06Z"/>
      <polygon class="cls-2" points="158.95 1.67 158.95 23.66 158.7 23.53 149.92 28.13 151.6 18.39 144.49 11.45 154.32 10.05 158.7 1.17 158.95 1.67"/>
      <path class="cls-1" d="m158.7,2.27l3.84,7.74.24.48.51.09,8.57,1.26-6.2,6.04-.39.36.09.51,1.47,8.52-7.67-4.01-.45-.24-.45.24-7.67,4.01,1.47-8.52.09-.51-.39-.36-6.2-6.04,8.57-1.26.51-.09.24-.48,3.84-7.74M158.7,0l-4.73,9.54-10.58,1.52,7.64,7.44-1.8,10.49,9.44-4.96,9.44,4.96-1.8-10.49,7.64-7.44-10.58-1.52-4.73-9.54h.06Z"/>
    </g>
  </g>
</svg>