<?xml version="1.0" encoding="UTF-8"?>
<svg id="Capa_2" data-name="Capa 2" xmlns="http://www.w3.org/2000/svg" viewBox="0 0 50 28.98">
  <defs>
    <style>
      .cls-1 {
        fill: #fff;
      }
    </style>
  </defs>
  <g id="Capa_1-2" data-name="Capa 1">
    <path class="cls-1" d="m0,4.5C-.07,2.45,1.48.46,3.68.08c1.51-.26,2.85.17,3.94,1.24,1.85,1.81,3.67,3.66,5.5,5.49,3.9,3.9,7.8,7.79,11.7,11.69.23.23.18.21.4,0,4.41-4.41,8.82-8.81,13.23-13.22,1.28-1.28,2.57-2.57,3.85-3.85.66-.66,1.45-1.11,2.37-1.28,1.46-.28,2.76.12,3.85,1.1,1.06.95,1.55,2.17,1.46,3.59-.06,1.09-.48,2.04-1.25,2.81-1.78,1.79-3.57,3.57-5.35,5.36-4.59,4.59-9.18,9.17-13.77,13.76-.76.76-1.6,1.4-2.59,1.8-1.86.76-3.59.45-5.23-.63-.48-.32-.9-.7-1.31-1.11C14.15,20.5,7.82,14.17,1.48,7.85c-.53-.53-.97-1.11-1.22-1.81C.07,5.53-.01,5.02,0,4.5Z"/>
  </g>
</svg>