<?xml version="1.0" encoding="UTF-8"?>
<svg id="Capa_2" data-name="Capa 2" xmlns="http://www.w3.org/2000/svg" viewBox="0 0 33.49 33.49">
  <defs>
    <style>
      .cls-1 {
        fill: #d3ad7f;
      }
    </style>
  </defs>
  <g id="Capa_1-2" data-name="Capa 1">
    <g>
      <path class="cls-1" d="m0,16.74C0,7.52,7.56-.07,16.9,0c9.04.07,16.73,7.53,16.59,17.04-.14,8.94-7.53,16.6-17.05,16.45C7.5,33.34.02,26,0,16.74Zm15.69,13.7c0-.51-.09-1.12.32-1.51.31-.3.75-.37,1.15-.21.98.41.52,1.62.64,2.42.03.17.03.17.2.18.22.01.46-.03.68-.05.59-.07,1.17-.2,1.74-.34,1.11-.28,2.18-.7,3.18-1.24.5-.26.98-.56,1.44-.88.23-.16.46-.33.68-.5.11-.09.55-.35.56-.49,0-.16-.44-.49-.55-.59-.2-.2-.41-.39-.6-.6-.29-.33-.4-.79-.2-1.2.2-.41.7-.67,1.15-.57.52.12.91.67,1.28,1.03.15.15.33.47.55.33.2-.13.38-.47.52-.66.34-.45.65-.92.94-1.4.57-.97,1.03-2,1.36-3.07.17-.54.3-1.09.41-1.64.06-.31.11-.62.14-.94.02-.14.13-.56.02-.67-.12-.13-.64-.03-.82-.03-.27,0-.54.01-.8,0-.44-.03-.83-.26-.99-.68-.17-.47,0-1,.42-1.26.43-.27,1.06-.17,1.54-.17.18,0,.58.08.67-.08.08-.15-.04-.61-.06-.77-.08-.57-.19-1.13-.33-1.69-.28-1.09-.68-2.15-1.2-3.15-.27-.51-.56-1.01-.89-1.49-.17-.24-.34-.48-.52-.71-.1-.13-.36-.58-.52-.59-.14-.01-.43.38-.53.48-.21.21-.42.43-.64.63-.37.35-.86.46-1.31.18-.32-.2-.52-.55-.5-.93.02-.47.36-.76.67-1.07.2-.2.58-.46.71-.71.11-.21-.13-.32-.3-.45-.44-.35-.89-.68-1.36-.98-.96-.61-1.99-1.1-3.07-1.47-1.08-.37-2.29-.7-3.44-.72-.33,0-.25.18-.25.47,0,.29,0,.57,0,.86,0,.48-.06.93-.49,1.2-.33.21-.76.22-1.1.02-.43-.26-.52-.68-.52-1.15,0-.29,0-.59,0-.88,0-.25.1-.49-.17-.53-.56-.08-1.28.15-1.82.26-2.23.46-4.35,1.49-6.11,2.91-.21.17-.45.26-.26.5.15.19.36.36.53.53.34.34.79.67.81,1.19.02.83-.91,1.38-1.61.92-.24-.15-.43-.39-.63-.59-.17-.17-.41-.53-.63-.63-.23-.11-.36.19-.5.37-.17.21-.33.42-.48.64-.65.91-1.19,1.89-1.62,2.93-.43,1.05-.74,2.15-.91,3.27-.05.3-.09.61-.11.92-.02.31.06.29.34.29.52,0,1.16-.1,1.65.07.89.31.93,1.63.03,1.97-.48.18-1.13.08-1.63.08-.3,0-.42-.04-.4.29.02.28.05.56.1.84.34,2.24,1.21,4.4,2.52,6.26.16.22.32.44.49.66.08.1.27.44.4.45.15,0,.49-.45.6-.56.2-.2.39-.41.6-.6.73-.64,1.93-.06,1.76.94-.09.51-.59.86-.93,1.2-.11.11-.52.4-.49.57.03.15.45.38.58.48.82.65,1.72,1.2,2.67,1.65.96.46,1.97.81,3.01,1.04.55.12,1.1.22,1.66.28.21.02.5.14.56-.11.05-.22,0-.52,0-.75Z"/>
      <path class="cls-1" d="m18.25,12.43c0-1.19,0-2.37,0-3.56,0-.22,0-.44,0-.66,0-.44-.18-.77-.57-1-.63-.36-1.4.1-1.51.73-.02.13-.03.25-.03.38,0,2.39,0,4.78,0,7.18q0,.2-.2.2c-1.85,0-3.69,0-5.54,0-.44,0-.78.17-1.01.56-.33.57-.04,1.31.6,1.5.5.14,1.09.06,1.61.06h1.9c1,0,2,0,3,0,.75,0,1.74-.04,1.75-1.04.01-.88.01-1.76.01-2.65,0-.56,0-1.12,0-1.68Z"/>
    </g>
  </g>
</svg>