<?xml version="1.0" encoding="UTF-8"?>
<svg id="Capa_2" data-name="Capa 2" xmlns="http://www.w3.org/2000/svg" viewBox="0 0 25.48 25.48">
  <defs>
    <style>
      .cls-1 {
        fill: #5a362a;
      }
    </style>
  </defs>
  <g id="Capa_1-2" data-name="Capa 1">
    <g>
      <path class="cls-1" d="m12.74,2.3c3.4,0,3.81.01,5.15.07,1.24.06,1.92.26,2.37.44.59.23,1.02.51,1.47.95.45.45.72.87.95,1.46.17.45.38,1.12.44,2.37.06,1.34.07,1.75.07,5.15s-.01,3.81-.07,5.15c-.06,1.24-.26,1.92-.44,2.37-.23.59-.51,1.02-.95,1.47s-.87.72-1.47.95c-.45.17-1.12.38-2.37.44-1.34.06-1.75.07-5.15.07s-3.81-.01-5.15-.07c-1.24-.06-1.92-.26-2.37-.44-.59-.23-1.02-.51-1.47-.95-.45-.45-.72-.87-.95-1.47-.17-.45-.38-1.12-.44-2.37-.06-1.34-.07-1.75-.07-5.15s.01-3.81.07-5.15c.06-1.24.26-1.92.44-2.37.23-.59.51-1.02.95-1.46.45-.45.87-.72,1.47-.95.45-.17,1.12-.38,2.37-.44,1.34-.06,1.75-.07,5.15-.07m0-2.3c-3.46,0-3.89.01-5.25.08-1.36.06-2.28.28-3.09.59-.84.33-1.55.76-2.26,1.47-.71.71-1.14,1.42-1.47,2.26-.32.81-.53,1.74-.59,3.09-.06,1.36-.08,1.79-.08,5.25s.01,3.89.08,5.25c.06,1.36.28,2.28.59,3.09.33.84.76,1.55,1.47,2.26s1.42,1.14,2.26,1.47c.81.31,1.74.53,3.09.59,1.36.06,1.79.08,5.25.08s3.89-.01,5.25-.08c1.36-.06,2.28-.28,3.09-.59.84-.33,1.55-.76,2.26-1.47.71-.71,1.14-1.42,1.47-2.26.31-.81.53-1.74.59-3.09.06-1.36.08-1.79.08-5.25s-.01-3.89-.08-5.25c-.06-1.36-.28-2.28-.59-3.09-.33-.84-.76-1.55-1.47-2.26-.71-.71-1.42-1.14-2.26-1.47-.81-.31-1.74-.53-3.09-.59-1.36-.06-1.79-.08-5.25-.08"/>
      <path class="cls-1" d="m12.74,6.2c-3.61,0-6.54,2.93-6.54,6.54s2.93,6.54,6.54,6.54,6.54-2.93,6.54-6.54-2.93-6.54-6.54-6.54m0,10.79c-2.35,0-4.25-1.9-4.25-4.25s1.9-4.25,4.25-4.25,4.25,1.9,4.25,4.25-1.9,4.25-4.25,4.25"/>
      <path class="cls-1" d="m21.07,5.94c0,.84-.68,1.53-1.53,1.53s-1.53-.68-1.53-1.53.68-1.53,1.53-1.53,1.53.68,1.53,1.53"/>
    </g>
  </g>
</svg>