<?xml version="1.0" encoding="UTF-8"?>
<svg id="Capa_2" data-name="Capa 2" xmlns="http://www.w3.org/2000/svg" viewBox="0 0 80 78.34">
  <defs>
    <style>
      .cls-1 {
        fill: #fff;
      }
    </style>
  </defs>
  <g id="Capa_1-2" data-name="Capa 1">
    <g>
      <path class="cls-1" d="m73.05,7.02c-1.4,1.65-1.07,4.36-2.64,5.86-1.14,1.08-2.87,1.14-4.44,1.14-3.96,0-7.91,0-11.87-.01-.97,0-2.26-.32-2.24-1.28.02-.94,1.27-1.22,2.21-1.21,4.4,0,8.79.02,13.19.03.45,0,.93,0,1.3-.26.39-.26.58-.74.74-1.18.93-2.55,1.86-5.09,2.8-7.64-13.72,0-27.43,0-41.15.01.82,2.6,1.73,5.16,2.75,7.69.17.43.37.88.75,1.14.39.26.89.27,1.36.27,3.8-.02,17.75-.08,21.55-.09,1.03,0,2.45.39,2.32,1.42-.12.86-1.25,1.07-2.11,1.08-3.63,0-17.41.04-21.04.05-1.2,0-2.49-.02-3.48-.7-1.96-1.35-1.7-4.39-3.16-6.26-.4,5.8-.81,11.61-1.21,17.41-.02.25-.03.53.11.74.27.4.87.3,1.35.28,1.5-.06,2.9,1.31,2.87,2.81-.02.73-.21,1.7.45,2.01.3.14.65.06.98.04,1.94-.08,3.14,2.29,2.86,4.21-.28,1.92-1.46,3.58-2.09,5.42-.43,1.25-.6,2.58-.76,3.89-1.35,10.67-2.7,21.34-4.05,32.01,12.6.01,25.21.03,37.81.04.77,0,1.76.18,1.89.93.16.88-1.02,1.34-1.91,1.41-2.81.22-5.65.04-8.46.03s-5.89-.01-8.83-.01c-8.71,0-17.42,0-26.13,0-4.41,0-8.82,0-13.24,0-1.48,0-3.74.4-4.5-1.27-.32-.71-.35-1.64-.47-2.4-.16-1.03-.25-2.08-.4-3.12-1.14-8.14-2.02-16.32-3.13-24.47-.28-2.09-.55-4.18-.81-6.27-.08-.66-.02-2.04-.56-2.43-.64-.47-1.19-.53-1.51-1.38-.33-.89-.17-1.99-.17-2.92,0-.82-.11-1.73.28-2.49.28-.54.75-.92,1.34-1.1.41-.12.82-.12,1.25-.12.28,0,.92.14,1.16-.05.39-.31.08-1.72.12-2.19.06-.72.29-1.47.84-1.98.46-.43,1.06-.6,1.67-.64,1.12-.08,2.26,0,3.38,0,4.28,0,8.56,0,12.84,0,.55,0,1.11,0,1.66,0,.4,0,.95.12,1.33,0,.7-.2.47-1.73.51-2.36.11-2.1.32-4.19.43-6.29.21-4.18.62-8.34.84-12.52.09-1.62-.14-3.88,1.98-4.14,1.98-.24,4.12-.02,6.11-.02,4.42,0,8.84,0,13.26,0,4.36,0,8.73,0,13.09,0,2.21,0,4.42,0,6.63,0,1.05,0,2.09,0,3.14,0,.82,0,1.78-.12,2.49.4.57.42.7,1.07.77,1.74.11,1.09.11,2.2.2,3.29.18,2.09.27,4.19.44,6.28.31,4.1.48,8.21.83,12.3.7,8.13,1.05,16.28,1.67,24.42.32,4.16.49,8.35.85,12.51.36,4.05.65,8.14.85,12.2.08,1.49-.4,2.96-1.56,3.95-1.75,1.49-4.36,1.11-6.49,1.1l-8.12-.04c-.8,0-1.84-.19-1.97-.98-.16-.97,1.17-1.39,2.15-1.41,3.38-.07,6.76-.03,10.14.1,1.19.05,2.66-.04,3.2-1.11.25-.5.22-1.08.18-1.64-1.49-22.06-2.98-44.12-4.48-66.18Zm-54.45,31.43c-4.03,0-8.07,0-12.1,0-.59,0-1.9-.31-2.06.34-.09.36.1.94.14,1.3.07.49.14.97.21,1.46.27,1.93.5,3.87.74,5.8.41,3.32.85,6.65,1.28,9.97.23,1.73.47,3.46.69,5.19.06.49.12.98.18,1.47.03.28-.01.76.13.99.29.45,1.2.24,1.66.24,3.59,0,7.17,0,10.76,0,1.79,0,3.59,0,5.38,0,.93,0,1.85,0,2.78,0,.2,0,.63.09.82-.03.25-.16.2-.57.24-.86.96-6.73,1.74-13.48,2.64-20.22.22-1.66.51-3.37.61-5.03.04-.74-.22-.6-.91-.6-.86,0-1.71,0-2.57,0-3.54,0-7.08,0-10.62,0Zm.03,29.2c-3.33,0-6.66,0-9.99,0-.48,0-.48.02-.43.5.08.81.27,1.6.34,2.4.14,1.6.46,3.19.57,4.79.04.51.06.51.57.51,4.79,0,9.57,0,14.36.01,1.2,0,2.39.03,3.59,0,.25,0,.37-.05.39-.34.08-1.42.43-2.81.52-4.23.07-1.09.34-2.15.42-3.24.03-.4.04-.4-.37-.4-3.32,0-6.64,0-9.96,0Zm-.09-31.66h0c2.3,0,4.6,0,6.9,0,2.98,0,5.95,0,8.93,0,.29,0,.4-.07.39-.38-.02-.8,0-1.6,0-2.4q0-.49-.48-.5c-10.46,0-20.93,0-31.39,0-.07,0-.15,0-.22,0-.19-.01-.24.07-.24.26.02.82.02,1.64.02,2.46,0,.56-.01.56.56.56,5.18,0,10.36,0,15.54,0Zm.03-8.16c-1.74,0-3.47,0-5.21,0-2.14,0-4.29,0-6.43,0-.27,0-.37.08-.36.36.02.55,0,1.1,0,1.65,0,.46,0,.46.47.46,7.6,0,15.21,0,22.81,0,.14,0,.27,0,.41-.01.23,0,.33-.11.32-.35-.02-.48,0-.96,0-1.43,0-.72.05-.66-.65-.66-3.79,0-7.57,0-11.36,0Z"/>
      <path class="cls-1" d="m52.65,45.64c4.47,0,8.95.01,13.42,0,1.32,0,2.45,1.17,2.44,2.45,0,3.03-.02,6.05,0,9.08.01,1.37-1.03,2.59-2.56,2.62-.25,0-.5,0-.75,0-8.4,0-16.79,0-25.19,0-.59,0-1.19.04-1.75-.23-.91-.44-1.45-1.14-1.45-2.17,0-3.13,0-6.26,0-9.39,0-1.36,1.28-2.36,2.39-2.35,4.48.02,8.97.01,13.45,0Zm-.01,2.4h0c-4.35.01-8.7.01-13.05.01-.42,0-.42,0-.42.41,0,1.46,0,2.91,0,4.37,0,1.39-.02,2.79.02,4.18,0,.31.14.31.36.31,2.11,0,4.22,0,6.34,0,6.59,0,13.17,0,19.76,0,.46,0,.46,0,.46-.47,0-2.81,0-5.61,0-8.42,0-.29-.08-.39-.39-.39-4.36,0-8.72,0-13.08,0Z"/>
      <path class="cls-1" d="m51.96,36.95c-3.49,0-6.99,0-10.48,0-.65,0-1.12-.35-1.24-.92-.13-.59.23-1.2.82-1.36.22-.06.45-.08.68-.08,6.84,0,13.69,0,20.53,0,.15,0,.31,0,.46.04.67.14.99.58.92,1.26-.06.63-.52,1.05-1.17,1.05-3.5,0-7.01,0-10.51,0Z"/>
      <path class="cls-1" d="m51.97,29.37c1.34,0,2.67,0,4.01,0,.87,0,2.21.06,2.15,1.28-.07,1.28-1.62,1.17-2.51,1.17-1.37,0-2.73,0-4.1,0-1.31,0-2.62.02-3.93,0-.85-.02-1.94-.27-1.8-1.38.15-1.14,1.38-1.07,2.25-1.06,1.31,0,2.62,0,3.93,0h0Z"/>
    </g>
  </g>
</svg>