<?xml version="1.0" encoding="UTF-8"?>
<svg id="Capa_2" data-name="Capa 2" xmlns="http://www.w3.org/2000/svg" viewBox="0 0 80 70.32">
  <defs>
    <style>
      .cls-1 {
        fill: #fff;
      }
    </style>
  </defs>
  <g id="Capa_1-2" data-name="Capa 1">
    <path class="cls-1" d="m79.72,68.29c-.38-.44-.91-.44-1.45-.44h-2.2c-1.39,0-2.83.06-4.22-.03-1.51-.09-1.1-1.92-1.07-3.02,0-3.02-.13-6.04,0-9.04.03-1.48,1.2-1.23,2.39-1.23h4.44c.91,0,2.55.03,2.36-1.35-.19-1.42-2.17-1.1-3.15-1.1-1.48,0-2.96,0-4.41.03-1.1.03-2.17.16-2.96.94-.35.35-.54.98-.91,1.2-.44.25-1.45.09-1.98.09-1.23,0-2.08-1.01-3.02-1.67-2.14-1.45-4.5-2.52-7.02-3.09-.69-.16-1.39-.35-2.08-.44-.54-.09-1.1-.03-1.67-.16-1.26-.31-2.39-1.45-3.43-2.2-1.98-1.39-4.12-3.56-6.74-2.71-1.76.57-2.93,2.27-2.87,4.09.06,1.04.5,1.89,1.13,2.68.91,1.13,1.83,2.24,2.71,3.34.41.5,1.23,1.2,1.45,1.76.11.29-.19.28-.39.27-.39-.01-.77,0-1.16,0-.97,0-1.94.05-2.91.05H13.85c-2.99,0-6.04.16-9.07,0-3.05-.19-2.36-4.06-2.36-6.14v-4.53c0-1.39-.28-3.02.03-4.34.63-2.74,4.41-2.01,6.45-2.01h59.75c1.1.03,2.14.35,2.68,1.39.57,1.13.28,2.68.25,3.87,0,1.48-.13,3.05.06,4.5.13.98,1.2,1.67,2.01.88.44-.44.35-1.07.35-1.61v-2.27c-.03-2.46.54-5.38-1.23-7.37-1.67-1.92-4-1.73-6.33-1.73h-22.79c-.35,0-1.23.19-1.42-.13-.16-.25.06-1.32.09-1.57.31-5.73.88-11.46,1.29-17.19.09-1.39.25-2.8.35-4.22.03-.57-.13-1.61.13-2.11.19-.41.72-.5,1.04-.79.94-.76.88-1.86.88-2.96,0-1.16-.03-2.17-1.04-2.96-.57-.44-.72-.63-.94-1.35-.19-.6-.35-1.23-.57-1.83-.31-.85-.91-1.48-1.83-1.67-1.35-.25-2.93-.06-4.28-.06h-4.5C29.91.07,26.89,0,23.93.07c-.98.03-1.89.35-2.33,1.26-.31.63-.47,1.35-.69,1.98-.13.47-.16.98-.6,1.23-.5.25-.98.25-1.42.72-.35.35-.57.82-.66,1.29-.22,1.07-.28,2.71.25,3.71.31.5.72.69,1.2,1.01.44.31.44.66.47,1.2.06,1.42.22,2.8.31,4.19.06.79.09,1.54.16,2.33.03.47.28,1.07-.22,1.26-.35-.03-.66,0-.91,0-1.13,0-8.66-.22-9.54.57-.94.82-1.51,2.3-2.14,3.34-.79,1.32-1.67,2.58-2.36,3.94-.72,1.35.03,2.52.66,3.75.66,1.35,1.32,2.68,1.98,4,.28.57.76.98.03,1.07-.69.09-1.45,0-2.17,0-1.32,0-2.55.03-3.68.82-.94.63-1.67,1.54-2.01,2.64-.38,1.23-.22,2.58-.22,3.84v4.44C.03,50.19,0,51.73.03,53.27c0,1.1.19,2.14.79,3.09,1.42,2.2,3.65,2.3,6.01,2.3h13.63c1.45,0,2.99-.16,4.41,0,1.26.16,2.52,1.42,3.56,2.08,1.26.88,2.55,1.73,3.84,2.58,2.46,1.64,4.88,3.31,7.37,4.88,1.1.69,2.27,1.23,3.56,1.48,1.39.28,2.61.16,4,0,2.87-.35,5.73-.63,8.59-.91,2.86-.31,5.73-.88,8.59-.85.76,0,1.51,0,2.24.03.47,0,1.48-.19,1.89.06.38.25.54.91.88,1.23.28.35.69.57,1.1.76,1.2.47,2.61.28,3.84.28,1.42,0,2.9.09,4.28,0,.98-.09,1.86-1.07,1.1-1.98Zm-39.89-32.11c-.06.44-.41.72-.88.72h-5.48c-.25,0-.31-.03-.19-.28l1.13-2.27c.06-.16.19-.22.38-.22h4.91c.22,0,.31.06.28.28-.06.6-.09,1.17-.16,1.76Zm.79-10.36c-.03.54-.06,1.07-.09,1.61-.06,1.23-.19,2.42-.28,3.65-.06.72-.25.57-.94.57h-1.79c-.22,0-1.51.16-1.64-.03-.16-.22.44-1.07.54-1.29.5-1.16.09-1.95-.54-2.99-.31-.54-.63-1.07-.98-1.61-.13-.28-.85-1.1-.79-1.39.06-.35,2.83-.13,3.31-.13h2.01c.28,0,1.04-.16,1.26.06.22.22-.03,1.23-.06,1.54Zm1.13-13.76c-.09.88-.25,1.73-.28,2.61-.03,1.07-.13,2.11-.22,3.18-.09,1.26-.25,2.49-.25,3.75,0,.16-.09.22-.22.22h-6.39c-.5,0-1.01.03-1.51.03-.19,0-.35-.03-.41-.22-.54-1.04-1.42-1.42-2.55-1.39-2.11.03-4.22,0-6.33,0q-.44,0-.47-.44c-.09-1.07-.19-2.14-.28-3.21-.03-.57-.03-1.1-.09-1.67-.06-.94-.13-1.89-.22-2.83-.06-.54-.06-.57.47-.57h18.29c.5,0,.5.03.47.54Zm-18.57-8c.13-.47.28-.91.44-1.39.03-.16.13-.19.25-.19h16.87c.35,0,.54.09.6.44.09.41.25.79.38,1.2.13.31.09.35-.22.35-1.51,0-3.02-.03-4.5-.03h-4.53v.03h-8.97c-.38,0-.44-.03-.31-.41Zm-2.58,4.6c0-.47.03-.94,0-1.39,0-.31.09-.44.41-.44,1.98.03,3.94.03,5.89.03h16.15q.57,0,.57.57v1.23q0,.47-.44.47h-22.1q-.44,0-.47-.47Zm-11.21,17.44c.35-.6.72-1.2,1.07-1.83.28-.44.57-1.26,1.04-1.54.09-.06.6-.13,1.32-.13h.22c1.61-.06,4.03,0,5.45,0h10.64v.03c.47-.03.98-.09,1.35.25.44.44.76,1.26,1.07,1.79.38.63.76,1.29,1.13,1.92.25.38.76.82.16,1.04-.44.13-1.29-.03-1.79-.03H10.17c-.25,0-1.45.16-1.57-.13-.09-.22.66-1.16.79-1.39Zm15.8,4.25c.03.88-.41,1.29-1.16,1.29-1.04.03-2.08,0-3.15,0h-2.71c-.91.03-1.2.09-1.48-.82-.31-1.01,0-.85.94-.82h5.67c.5,0,1.04-.09,1.54-.03.44.06.35,0,.35.38Zm-16.78.82c-.16-.31-.31-.63-.44-.94-.09-.16-.09-.28.13-.28,1.89.09,3.75.03,5.64.06.16,0,.25.03.31.22.13.41.28.82.38,1.26.31,1.67,1.51,2.64,3.24,2.64h6.58c1.48,0,2.68-.94,3.05-2.39.13-.5.25-.98.38-1.48.06-.22.19-.28.44-.28,1.64.03,3.27.03,4.91.03h.57c.28-.03.31.09.19.31-.16.31-.31.63-.47.98-.88,1.79-1.79,3.56-2.68,5.35-.09.22-.22.25-.44.25H11.62c-.28,0-.44-.06-.57-.35-.88-1.79-1.76-3.59-2.64-5.38Zm59.91,34.41c-.31.25-1.48.03-1.86.03-1.45,0-2.93-.03-4.41.03-2.93.16-5.86.63-8.78.94-2.77.31-5.6.91-8.44.85-2.96-.03-5.26-2.11-7.62-3.65-2.52-1.7-5.01-3.37-7.52-5.04v-.09h12.37c.91.06,1.86.03,2.77.03.6,0,1.42.13,2.17.03.35.13.5.35.88.76s.88.66,1.45.38c1.17-.57.47-1.73-.09-2.42-1.86-2.3-3.75-4.63-5.64-6.93-.76-.88-1.95-1.98-1.35-3.24.57-1.16,1.86-1.26,2.8-.6,1.26.82,2.46,1.73,3.68,2.58,1.07.79,2.2,1.92,3.56,2.08,2.77.35,5.38.82,7.9,2.11,1.2.6,2.3,1.35,3.34,2.17.54.44.98.98,1.67,1.07.69.06,1.45,0,2.17,0,.63,0,1.01-.16,1.04.54.06.76,0,1.48,0,2.24v4.41c0,.31.22,1.48-.09,1.73Z"/>
  </g>
</svg>