<?xml version="1.0" encoding="UTF-8"?>
<svg id="Capa_2" data-name="Capa 2" xmlns="http://www.w3.org/2000/svg" viewBox="0 0 36.46 34.39">
  <defs>
    <style>
      .cls-1 {
        fill: #d3ad7f;
      }

      .cls-2 {
        fill: #f1f1f1;
      }
    </style>
  </defs>
  <g id="Capa_1-2" data-name="Capa 1">
    <g>
      <path class="cls-1" d="m30.6,1.86c2.2,0,4,2.5,4,5.6v14.31c0,3.11-1.8,5.6-4,5.6,0,0-6.59,0-6.59,0-.42.6-1.08,1.12-1.57,1.66-.94,1.02-1.97,1.97-2.99,2.9-.29.27-.63.51-1.02.58-.08.01-.15.02-.22.02-.45,0-.75-.31-1.09-.61-.5-.45-.97-.93-1.43-1.42-.93-1-1.8-2.06-2.65-3.13h-7.22c-2.2,0-3.96-2.5-3.96-5.6V7.46c0-3.11,1.77-5.6,3.96-5.6h24.78m0-1.86H5.82C2.56,0,0,3.28,0,7.46v14.31c0,4.18,2.56,7.46,5.82,7.46h6.33c.68.84,1.41,1.71,2.19,2.54.55.59,1.06,1.09,1.55,1.53l.07.07c.42.38,1.13,1.02,2.26,1.02.19,0,.38-.02.57-.06.66-.13,1.29-.47,1.91-1.03,1.09-.99,2.14-1.96,3.11-3.01.15-.17.33-.33.5-.5.18-.17.37-.36.56-.55h5.73c3.28,0,5.85-3.28,5.85-7.46V7.46c0-4.18-2.57-7.46-5.85-7.46h0Z"/>
      <g>
        <path class="cls-2" d="m25.57,20.6h-14.28v-.82c0-2.17,1.76-3.92,3.92-3.92h6.43c2.17,0,3.92,1.76,3.92,3.92v.82Z"/>
        <ellipse class="cls-2" cx="18.23" cy="11.26" rx="3.92" ry="3.65"/>
      </g>
    </g>
  </g>
</svg>