<?xml version="1.0" encoding="UTF-8"?>
<svg id="Capa_2" data-name="Capa 2" xmlns="http://www.w3.org/2000/svg" viewBox="0 0 33.49 33.48">
  <defs>
    <style>
      .cls-1 {
        fill: #d3ad7f;
      }
    </style>
  </defs>
  <g id="Capa_1-2" data-name="Capa 1">
    <path class="cls-1" d="m33.49,16.74c0,9.21-7.51,16.82-16.92,16.74C7.54,33.41-.14,26,0,16.46.13,7.45,7.51-.05,16.86,0c9.16.05,16.62,7.51,16.63,16.74ZM16.79,2.01c-.59-.01-1.15,0-1.7.06-1.06.13-2.1.36-3.11.7-3.76,1.28-6.92,4.11-8.61,7.7-1.86,3.96-1.84,8.7.05,12.64.45.93,1,1.82,1.63,2.64.07.08.42.63.52.61.09-.02.16-.53.19-.62.14-.45.32-.9.52-1.33.81-1.78,2.08-3.34,3.66-4.49.74-.54,1.54-.99,2.38-1.35.25-.1.56-.12.27-.35-.2-.16-.4-.31-.59-.48-.33-.3-.62-.63-.89-.98-1.25-1.66-1.7-3.81-1.23-5.83.98-4.13,5.52-6.49,9.46-4.93,3.73,1.48,5.49,5.97,3.74,9.58-.43.89-1.05,1.69-1.8,2.33-.08.07-.55.36-.53.45.02.11.44.21.54.25.48.2.94.45,1.39.72,1.59.97,2.93,2.3,3.9,3.89.53.87.95,1.82,1.22,2.8.06.22.05.44.26.2.14-.16.27-.32.4-.49.33-.41.62-.86.89-1.31,1.14-1.83,1.83-3.9,2.05-6.04.45-4.16-.83-8.33-3.63-11.46-2.73-3.06-6.83-5.04-10.98-4.92Zm.93,29.45c.34.02.67-.07,1-.1,1.78-.19,3.54-.81,5.11-1.67.76-.42,1.53-.91,2.2-1.47.21-.18.16-.27.11-.52-.04-.23-.07-.45-.12-.68-.1-.42-.22-.83-.38-1.23-1.02-2.68-3.26-4.81-5.99-5.68-3.07-.97-6.49-.32-8.97,1.73-1.11.91-2.02,2.09-2.61,3.39-.34.74-.57,1.52-.72,2.32-.03.15-.13.4-.05.54.06.1.22.17.31.24.31.24.62.48.94.69,1.31.88,2.78,1.55,4.3,1.96.79.21,1.62.36,2.44.44.81.08,1.61-.02,2.41.03Zm4.09-18.92c0-2.81-2.24-5.07-5.05-5.07-2.87,0-5.09,2.29-5.09,5.08,0,2.74,2.22,5.09,5.14,5.06,2.69-.02,5-2.21,5-5.07Z"/>
  </g>
</svg>